<svg width="36" height="33" viewBox="0 0 36 33" fill="none" xmlns="http://www.w3.org/2000/svg">
<g id="Group">
<path id="Vector" d="M18.989 30.604C19.887 28.552 20.761 26.489 21.637 24.428C19.996 25.618 17.981 26.32 15.804 26.32C10.313 26.32 5.84598 21.853 5.84598 16.362C5.84598 10.871 10.313 6.40399 15.804 6.40399C16.87 6.40399 17.897 6.573 18.86 6.884C19.448 5.093 20.048 3.30601 20.645 1.51901C19.12 1.02001 17.493 0.75 15.804 0.75C7.19499 0.75 0.190979 7.75401 0.190979 16.363C0.190979 24.972 7.19499 31.976 15.804 31.976C16.88 31.976 17.93 31.867 18.945 31.658C18.78 31.369 18.809 31.015 18.988 30.605L18.989 30.604Z" fill="white"/>
<g id="jeI1HU-2">
<g id="Group_2">
<path id="Vector_2" d="M25.338 26.2879C24.374 27.3649 23.404 28.4359 22.448 29.5199C21.768 30.2909 21.102 31.0749 20.395 31.8219C20.274 31.9499 20.109 32.0019 19.992 32.1259H19.5C18.802 31.7939 18.697 31.2729 18.989 30.6059C20.148 27.9579 21.266 25.2909 22.403 22.6339C22.883 21.5119 23.373 20.3939 23.873 19.2379C23.738 19.2319 23.632 19.2219 23.526 19.2219C21.068 19.2219 18.61 19.2219 16.152 19.2219C15.374 19.2219 14.966 18.6489 15.21 17.9149C16.313 14.5959 17.428 11.2819 18.51 7.95693C19.215 5.78993 19.941 3.63093 20.663 1.46993C20.88 0.819928 21.097 0.662936 21.777 0.664936C22.944 0.666936 24.112 0.670915 25.279 0.674915C25.279 9.11792 25.277 17.5619 25.279 26.0049C25.279 26.1029 25.244 26.2129 25.34 26.2919L25.338 26.2879Z" fill="#F9D955"/>
<path id="Vector_3" d="M25.338 26.288C25.242 26.209 25.277 26.099 25.277 26.001C25.277 17.558 25.277 9.11395 25.277 0.67095C27.734 0.66795 30.191 0.656945 32.648 0.665945C33.371 0.668945 33.791 1.38094 33.445 2.01494C32.835 3.13194 32.195 4.23196 31.57 5.33996C31.088 6.19396 30.611 7.05096 30.13 7.90496C29.554 8.92696 28.977 9.94695 28.399 10.9679C27.916 11.8209 27.432 12.673 26.95 13.527C26.927 13.568 26.924 13.622 26.906 13.689C27.548 13.689 28.171 13.689 28.794 13.689C30.668 13.689 32.541 13.688 34.415 13.689C34.921 13.689 35.28 13.9399 35.392 14.3819C35.483 14.7389 35.344 15.044 35.114 15.302C34.364 16.146 33.6 16.978 32.85 17.822C31.965 18.818 31.093 19.824 30.209 20.82C29.459 21.665 28.695 22.497 27.945 23.342C27.229 24.148 26.523 24.962 25.81 25.771C25.656 25.946 25.495 26.1149 25.337 26.2869L25.338 26.288Z" fill="#F3BF42"/>
</g>
</g>
</g>
</svg>
