<svg width="40" height="40" viewBox="0 0 40 40" fill="none" xmlns="http://www.w3.org/2000/svg">
<path fill-rule="evenodd" clip-rule="evenodd" d="M13.1516 13.1516C13.3767 12.9267 13.6818 12.8003 14 12.8003C14.3182 12.8003 14.6234 12.9267 14.8484 13.1516L20 18.3032L25.1516 13.1516C25.2623 13.037 25.3947 12.9456 25.5412 12.8827C25.6876 12.8198 25.845 12.7867 26.0044 12.7853C26.1637 12.7839 26.3217 12.8143 26.4692 12.8746C26.6167 12.935 26.7506 13.0241 26.8633 13.1367C26.976 13.2494 27.0651 13.3834 27.1254 13.5309C27.1858 13.6784 27.2161 13.8364 27.2147 13.9957C27.2134 14.155 27.1803 14.3125 27.1174 14.4589C27.0545 14.6053 26.963 14.7377 26.8484 14.8484L21.6968 20L26.8484 25.1516C27.067 25.3779 27.188 25.6811 27.1852 25.9957C27.1825 26.3103 27.0563 26.6113 26.8338 26.8338C26.6113 27.0563 26.3104 27.1825 25.9957 27.1852C25.6811 27.188 25.378 27.067 25.1516 26.8484L20 21.6968L14.8484 26.8484C14.6221 27.067 14.319 27.188 14.0044 27.1852C13.6897 27.1825 13.3887 27.0563 13.1663 26.8338C12.9438 26.6113 12.8176 26.3103 12.8148 25.9957C12.8121 25.6811 12.933 25.3779 13.1516 25.1516L18.3032 20L13.1516 14.8484C12.9267 14.6234 12.8003 14.3182 12.8003 14C12.8003 13.6818 12.9267 13.3767 13.1516 13.1516Z" fill="white"/>
</svg>
