<svg width="798" height="384" viewBox="0 0 798 384" fill="none" xmlns="http://www.w3.org/2000/svg">
<g style="mix-blend-mode:lighten" opacity="0.4">
<path d="M399.541 383.975H0.421997V0.491089H399.541V383.975ZM1.505 383.265H398.458V1.20105H1.505V383.265Z" fill="url(#paint0_linear_1_50)"/>
<path d="M398.999 348.467H0.963013V349.177H398.999V348.467Z" fill="url(#paint1_linear_1_50)"/>
<path d="M398.999 313.669H0.963013V314.379H398.999V313.669Z" fill="url(#paint2_linear_1_50)"/>
<path d="M398.999 278.872H0.963013V279.582H398.999V278.872Z" fill="url(#paint3_linear_1_50)"/>
<path d="M398.999 244.074H0.963013V244.784H398.999V244.074Z" fill="url(#paint4_linear_1_50)"/>
<path d="M398.999 209.276H0.963013V209.986H398.999V209.276Z" fill="url(#paint5_linear_1_50)"/>
<path d="M398.999 174.479H0.963013V175.189H398.999V174.479Z" fill="url(#paint6_linear_1_50)"/>
<path d="M398.999 139.681H0.963013V140.391H398.999V139.681Z" fill="url(#paint7_linear_1_50)"/>
<path d="M398.999 104.883H0.963013V105.593H398.999V104.883Z" fill="url(#paint8_linear_1_50)"/>
<path d="M398.999 70.0861H0.963013V70.796H398.999V70.0861Z" fill="url(#paint9_linear_1_50)"/>
<path d="M398.999 35.2881H0.963013V35.998H398.999V35.2881Z" fill="url(#paint10_linear_1_50)"/>
<path d="M363.356 0.844971H362.273V383.619H363.356V0.844971Z" fill="url(#paint11_linear_1_50)"/>
<path d="M327.171 0.844971H326.088V383.619H327.171V0.844971Z" fill="url(#paint12_linear_1_50)"/>
<path d="M290.986 0.844971H289.903V383.619H290.986V0.844971Z" fill="url(#paint13_linear_1_50)"/>
<path d="M254.801 0.844971H253.718V383.619H254.801V0.844971Z" fill="url(#paint14_linear_1_50)"/>
<path d="M218.616 0.844971H217.533V383.619H218.616V0.844971Z" fill="url(#paint15_linear_1_50)"/>
<path d="M182.431 0.844971H181.348V383.619H182.431V0.844971Z" fill="url(#paint16_linear_1_50)"/>
<path d="M146.245 0.844971H145.162V383.619H146.245V0.844971Z" fill="url(#paint17_linear_1_50)"/>
<path d="M110.06 0.844971H108.977V383.619H110.06V0.844971Z" fill="url(#paint18_linear_1_50)"/>
<path d="M73.875 0.844971H72.792V383.619H73.875V0.844971Z" fill="url(#paint19_linear_1_50)"/>
<path d="M37.69 0.844971H36.607V383.619H37.69V0.844971Z" fill="url(#paint20_linear_1_50)"/>
<path d="M797.577 383.975H398.458V0.491089H797.577V383.975ZM399.541 383.265H796.494V1.20105H399.541V383.265Z" fill="url(#paint21_linear_1_50)"/>
<path d="M797.036 348.467H399V349.177H797.036V348.467Z" fill="url(#paint22_linear_1_50)"/>
<path d="M797.036 313.669H399V314.379H797.036V313.669Z" fill="url(#paint23_linear_1_50)"/>
<path d="M797.036 278.872H399V279.582H797.036V278.872Z" fill="url(#paint24_linear_1_50)"/>
<path d="M797.036 244.074H399V244.784H797.036V244.074Z" fill="url(#paint25_linear_1_50)"/>
<path d="M797.036 209.276H399V209.986H797.036V209.276Z" fill="url(#paint26_linear_1_50)"/>
<path d="M797.036 174.479H399V175.189H797.036V174.479Z" fill="url(#paint27_linear_1_50)"/>
<path d="M797.036 139.681H399V140.391H797.036V139.681Z" fill="url(#paint28_linear_1_50)"/>
<path d="M797.036 104.883H399V105.593H797.036V104.883Z" fill="url(#paint29_linear_1_50)"/>
<path d="M797.036 70.0861H399V70.796H797.036V70.0861Z" fill="url(#paint30_linear_1_50)"/>
<path d="M797.036 35.2881H399V35.998H797.036V35.2881Z" fill="url(#paint31_linear_1_50)"/>
<path d="M761.392 0.844971H760.309V383.619H761.392V0.844971Z" fill="url(#paint32_linear_1_50)"/>
<path d="M725.207 0.844971H724.124V383.619H725.207V0.844971Z" fill="url(#paint33_linear_1_50)"/>
<path d="M689.022 0.844971H687.939V383.619H689.022V0.844971Z" fill="url(#paint34_linear_1_50)"/>
<path d="M652.837 0.844971H651.754V383.619H652.837V0.844971Z" fill="url(#paint35_linear_1_50)"/>
<path d="M616.652 0.844971H615.569V383.619H616.652V0.844971Z" fill="url(#paint36_linear_1_50)"/>
<path d="M580.467 0.844971H579.384V383.619H580.467V0.844971Z" fill="url(#paint37_linear_1_50)"/>
<path d="M544.282 0.844971H543.199V383.619H544.282V0.844971Z" fill="url(#paint38_linear_1_50)"/>
<path d="M508.097 0.844971H507.014V383.619H508.097V0.844971Z" fill="url(#paint39_linear_1_50)"/>
<path d="M471.912 0.844971H470.829V383.619H471.912V0.844971Z" fill="url(#paint40_linear_1_50)"/>
<path d="M435.726 0.844971H434.643V383.619H435.726V0.844971Z" fill="url(#paint41_linear_1_50)"/>
</g>
<defs>
<linearGradient id="paint0_linear_1_50" x1="199.98" y1="339.625" x2="199.98" y2="-44.4999" gradientUnits="userSpaceOnUse">
<stop/>
<stop offset="1" stop-color="#F3BF42"/>
</linearGradient>
<linearGradient id="paint1_linear_1_50" x1="113.733" y1="-286.854" x2="198.348" y2="336.825" gradientUnits="userSpaceOnUse">
<stop stop-color="#F3BF42"/>
<stop offset="1"/>
</linearGradient>
<linearGradient id="paint2_linear_1_50" x1="120.749" y1="-269.943" x2="205.364" y2="353.735" gradientUnits="userSpaceOnUse">
<stop stop-color="#F3BF42"/>
<stop offset="1"/>
</linearGradient>
<linearGradient id="paint3_linear_1_50" x1="127.765" y1="-253.035" x2="212.38" y2="370.645" gradientUnits="userSpaceOnUse">
<stop stop-color="#F3BF42"/>
<stop offset="1"/>
</linearGradient>
<linearGradient id="paint4_linear_1_50" x1="134.781" y1="-236.208" x2="219.424" y2="387.574" gradientUnits="userSpaceOnUse">
<stop stop-color="#F3BF42"/>
<stop offset="1"/>
</linearGradient>
<linearGradient id="paint5_linear_1_50" x1="141.797" y1="-219.29" x2="226.44" y2="404.492" gradientUnits="userSpaceOnUse">
<stop stop-color="#F3BF42"/>
<stop offset="1"/>
</linearGradient>
<linearGradient id="paint6_linear_1_50" x1="148.813" y1="-202.372" x2="233.456" y2="421.41" gradientUnits="userSpaceOnUse">
<stop stop-color="#F3BF42"/>
<stop offset="1"/>
</linearGradient>
<linearGradient id="paint7_linear_1_50" x1="155.828" y1="-185.399" x2="240.443" y2="438.28" gradientUnits="userSpaceOnUse">
<stop stop-color="#F3BF42"/>
<stop offset="1"/>
</linearGradient>
<linearGradient id="paint8_linear_1_50" x1="162.844" y1="-168.49" x2="247.459" y2="455.189" gradientUnits="userSpaceOnUse">
<stop stop-color="#F3BF42"/>
<stop offset="1"/>
</linearGradient>
<linearGradient id="paint9_linear_1_50" x1="169.86" y1="-151.581" x2="254.475" y2="472.098" gradientUnits="userSpaceOnUse">
<stop stop-color="#F3BF42"/>
<stop offset="1"/>
</linearGradient>
<linearGradient id="paint10_linear_1_50" x1="176.876" y1="-134.673" x2="261.491" y2="489.006" gradientUnits="userSpaceOnUse">
<stop stop-color="#F3BF42"/>
<stop offset="1"/>
</linearGradient>
<linearGradient id="paint11_linear_1_50" x1="324.75" y1="-88.348" x2="380.674" y2="323.845" gradientUnits="userSpaceOnUse">
<stop stop-color="#F3BF42"/>
<stop offset="1"/>
</linearGradient>
<linearGradient id="paint12_linear_1_50" x1="288.998" y1="-85.183" x2="344.929" y2="327.008" gradientUnits="userSpaceOnUse">
<stop stop-color="#F3BF42"/>
<stop offset="1"/>
</linearGradient>
<linearGradient id="paint13_linear_1_50" x1="253.238" y1="-82.019" x2="309.163" y2="330.174" gradientUnits="userSpaceOnUse">
<stop stop-color="#F3BF42"/>
<stop offset="1"/>
</linearGradient>
<linearGradient id="paint14_linear_1_50" x1="217.486" y1="-78.855" x2="273.418" y2="333.337" gradientUnits="userSpaceOnUse">
<stop stop-color="#F3BF42"/>
<stop offset="1"/>
</linearGradient>
<linearGradient id="paint15_linear_1_50" x1="181.727" y1="-75.69" x2="237.651" y2="336.503" gradientUnits="userSpaceOnUse">
<stop stop-color="#F3BF42"/>
<stop offset="1"/>
</linearGradient>
<linearGradient id="paint16_linear_1_50" x1="145.971" y1="-72.526" x2="201.895" y2="339.668" gradientUnits="userSpaceOnUse">
<stop stop-color="#F3BF42"/>
<stop offset="1"/>
</linearGradient>
<linearGradient id="paint17_linear_1_50" x1="110.217" y1="-69.361" x2="166.144" y2="342.831" gradientUnits="userSpaceOnUse">
<stop stop-color="#F3BF42"/>
<stop offset="1"/>
</linearGradient>
<linearGradient id="paint18_linear_1_50" x1="74.4587" y1="-66.197" x2="130.384" y2="345.996" gradientUnits="userSpaceOnUse">
<stop stop-color="#F3BF42"/>
<stop offset="1"/>
</linearGradient>
<linearGradient id="paint19_linear_1_50" x1="38.7027" y1="-63.032" x2="94.6284" y2="349.161" gradientUnits="userSpaceOnUse">
<stop stop-color="#F3BF42"/>
<stop offset="1"/>
</linearGradient>
<linearGradient id="paint20_linear_1_50" x1="2.94776" y1="-59.868" x2="58.8724" y2="352.325" gradientUnits="userSpaceOnUse">
<stop stop-color="#F3BF42"/>
<stop offset="1"/>
</linearGradient>
<linearGradient id="paint21_linear_1_50" x1="598.017" y1="339.624" x2="598.016" y2="-44.4999" gradientUnits="userSpaceOnUse">
<stop/>
<stop offset="1" stop-color="#F3BF42"/>
</linearGradient>
<linearGradient id="paint22_linear_1_50" x1="511.77" y1="-286.854" x2="596.385" y2="336.825" gradientUnits="userSpaceOnUse">
<stop stop-color="#F3BF42"/>
<stop offset="1"/>
</linearGradient>
<linearGradient id="paint23_linear_1_50" x1="518.786" y1="-269.944" x2="603.401" y2="353.735" gradientUnits="userSpaceOnUse">
<stop stop-color="#F3BF42"/>
<stop offset="1"/>
</linearGradient>
<linearGradient id="paint24_linear_1_50" x1="525.801" y1="-253.035" x2="610.417" y2="370.644" gradientUnits="userSpaceOnUse">
<stop stop-color="#F3BF42"/>
<stop offset="1"/>
</linearGradient>
<linearGradient id="paint25_linear_1_50" x1="532.817" y1="-236.208" x2="617.461" y2="387.574" gradientUnits="userSpaceOnUse">
<stop stop-color="#F3BF42"/>
<stop offset="1"/>
</linearGradient>
<linearGradient id="paint26_linear_1_50" x1="539.833" y1="-219.29" x2="624.476" y2="404.492" gradientUnits="userSpaceOnUse">
<stop stop-color="#F3BF42"/>
<stop offset="1"/>
</linearGradient>
<linearGradient id="paint27_linear_1_50" x1="546.849" y1="-202.373" x2="631.493" y2="421.409" gradientUnits="userSpaceOnUse">
<stop stop-color="#F3BF42"/>
<stop offset="1"/>
</linearGradient>
<linearGradient id="paint28_linear_1_50" x1="553.865" y1="-185.399" x2="638.48" y2="438.28" gradientUnits="userSpaceOnUse">
<stop stop-color="#F3BF42"/>
<stop offset="1"/>
</linearGradient>
<linearGradient id="paint29_linear_1_50" x1="560.881" y1="-168.49" x2="645.496" y2="455.189" gradientUnits="userSpaceOnUse">
<stop stop-color="#F3BF42"/>
<stop offset="1"/>
</linearGradient>
<linearGradient id="paint30_linear_1_50" x1="567.897" y1="-151.582" x2="652.512" y2="472.097" gradientUnits="userSpaceOnUse">
<stop stop-color="#F3BF42"/>
<stop offset="1"/>
</linearGradient>
<linearGradient id="paint31_linear_1_50" x1="574.912" y1="-134.673" x2="659.527" y2="489.006" gradientUnits="userSpaceOnUse">
<stop stop-color="#F3BF42"/>
<stop offset="1"/>
</linearGradient>
<linearGradient id="paint32_linear_1_50" x1="722.786" y1="-88.348" x2="778.711" y2="323.845" gradientUnits="userSpaceOnUse">
<stop stop-color="#F3BF42"/>
<stop offset="1"/>
</linearGradient>
<linearGradient id="paint33_linear_1_50" x1="687.03" y1="-85.184" x2="742.955" y2="327.01" gradientUnits="userSpaceOnUse">
<stop stop-color="#F3BF42"/>
<stop offset="1"/>
</linearGradient>
<linearGradient id="paint34_linear_1_50" x1="651.275" y1="-82.019" x2="707.199" y2="330.174" gradientUnits="userSpaceOnUse">
<stop stop-color="#F3BF42"/>
<stop offset="1"/>
</linearGradient>
<linearGradient id="paint35_linear_1_50" x1="615.519" y1="-78.855" x2="671.443" y2="333.338" gradientUnits="userSpaceOnUse">
<stop stop-color="#F3BF42"/>
<stop offset="1"/>
</linearGradient>
<linearGradient id="paint36_linear_1_50" x1="579.763" y1="-75.69" x2="635.688" y2="336.503" gradientUnits="userSpaceOnUse">
<stop stop-color="#F3BF42"/>
<stop offset="1"/>
</linearGradient>
<linearGradient id="paint37_linear_1_50" x1="544.007" y1="-72.526" x2="599.932" y2="339.667" gradientUnits="userSpaceOnUse">
<stop stop-color="#F3BF42"/>
<stop offset="1"/>
</linearGradient>
<linearGradient id="paint38_linear_1_50" x1="508.251" y1="-69.362" x2="564.176" y2="342.832" gradientUnits="userSpaceOnUse">
<stop stop-color="#F3BF42"/>
<stop offset="1"/>
</linearGradient>
<linearGradient id="paint39_linear_1_50" x1="472.496" y1="-66.197" x2="528.42" y2="345.996" gradientUnits="userSpaceOnUse">
<stop stop-color="#F3BF42"/>
<stop offset="1"/>
</linearGradient>
<linearGradient id="paint40_linear_1_50" x1="436.74" y1="-63.033" x2="492.664" y2="349.161" gradientUnits="userSpaceOnUse">
<stop stop-color="#F3BF42"/>
<stop offset="1"/>
</linearGradient>
<linearGradient id="paint41_linear_1_50" x1="400.984" y1="-59.868" x2="456.909" y2="352.325" gradientUnits="userSpaceOnUse">
<stop stop-color="#F3BF42"/>
<stop offset="1"/>
</linearGradient>
</defs>
</svg>
